<mxfile host="app.diagrams.net" modified="2023-11-08T08:18:50.547Z" agent="Mozilla/5.0 (Windows NT 10.0; Win64; x64) AppleWebKit/537.36 (KHTML, like Gecko) Chrome/119.0.0.0 Safari/537.36" etag="2bbBxTTRY7KX8kHCKX3x" version="22.0.8" type="github">
  <diagram name="Page-1" id="e3a06f82-3646-2815-327d-82caf3d4e204">
    <mxGraphModel dx="1420" dy="744" grid="1" gridSize="10" guides="1" tooltips="1" connect="1" arrows="1" fold="1" page="1" pageScale="1.5" pageWidth="827" pageHeight="1169" background="none" math="0" shadow="0">
      <root>
        <mxCell id="0" style=";html=1;" />
        <mxCell id="1" style=";html=1;" parent="0" />
        <mxCell id="6a7d8f32e03d9370-59" value="&lt;font size=&quot;1&quot; style=&quot;&quot; face=&quot;Calibri&quot;&gt;&lt;span style=&quot;font-size: 20px;&quot;&gt;&lt;b&gt;Transform&lt;/b&gt;&lt;br&gt;Преобразование данных&lt;br&gt;&lt;/span&gt;&lt;/font&gt;" style="whiteSpace=wrap;html=1;fillColor=#dae8fc;fontSize=14;strokeColor=#6c8ebf;verticalAlign=top;" parent="1" vertex="1">
          <mxGeometry x="470" y="80.44" width="240" height="500" as="geometry" />
        </mxCell>
        <mxCell id="6a7d8f32e03d9370-57" value="&lt;font style=&quot;font-size: 20px;&quot; face=&quot;Calibri&quot;&gt;&lt;b&gt;Extract&lt;/b&gt;&lt;br&gt;Извлечение данных из источников&lt;br&gt;&lt;/font&gt;" style="whiteSpace=wrap;html=1;fillColor=#dae8fc;fontSize=14;strokeColor=#6c8ebf;verticalAlign=top;" parent="1" vertex="1">
          <mxGeometry x="120" y="80" width="320" height="500" as="geometry" />
        </mxCell>
        <mxCell id="6a7d8f32e03d9370-34" style="edgeStyle=none;rounded=0;html=1;startSize=10;endSize=10;jettySize=auto;orthogonalLoop=1;fontSize=14;endArrow=none;endFill=0;strokeWidth=2;entryX=0.007;entryY=0.624;entryDx=0;entryDy=0;entryPerimeter=0;" parent="1" source="52mS36F658FpA1EYwAAP-5" target="6a7d8f32e03d9370-16" edge="1">
          <mxGeometry relative="1" as="geometry">
            <mxPoint x="447.13" y="522.6829111531192" as="sourcePoint" />
            <mxPoint x="545.13" y="375.44" as="targetPoint" />
          </mxGeometry>
        </mxCell>
        <mxCell id="6a7d8f32e03d9370-33" style="edgeStyle=none;rounded=0;html=1;startSize=10;endSize=10;jettySize=auto;orthogonalLoop=1;fontSize=14;endArrow=none;endFill=0;strokeWidth=2;entryX=-0.002;entryY=0.552;entryDx=0;entryDy=0;entryPerimeter=0;" parent="1" source="52mS36F658FpA1EYwAAP-4" target="6a7d8f32e03d9370-16" edge="1">
          <mxGeometry relative="1" as="geometry">
            <mxPoint x="447.13" y="358.68291115311916" as="sourcePoint" />
            <mxPoint x="322.13" y="290.44" as="targetPoint" />
          </mxGeometry>
        </mxCell>
        <mxCell id="6a7d8f32e03d9370-32" style="edgeStyle=none;rounded=0;html=1;startSize=10;endSize=10;jettySize=auto;orthogonalLoop=1;fontSize=14;endArrow=none;endFill=0;strokeWidth=2;entryX=0.007;entryY=0.494;entryDx=0;entryDy=0;entryPerimeter=0;" parent="1" source="52mS36F658FpA1EYwAAP-1" target="6a7d8f32e03d9370-16" edge="1">
          <mxGeometry relative="1" as="geometry">
            <mxPoint x="443.13" y="194.69418994413405" as="sourcePoint" />
          </mxGeometry>
        </mxCell>
        <mxCell id="6a7d8f32e03d9370-16" value="" style="verticalLabelPosition=bottom;aspect=fixed;html=1;verticalAlign=top;strokeColor=none;shape=mxgraph.citrix.chassis;fillColor=#66B2FF;gradientColor=#0066CC;fontSize=14;" parent="1" vertex="1">
          <mxGeometry x="521.25" y="241.69" width="137.5" height="177.5" as="geometry" />
        </mxCell>
        <mxCell id="52mS36F658FpA1EYwAAP-1" value="&lt;font style=&quot;font-size: 16px;&quot; face=&quot;Calibri&quot;&gt;ЕАИСУ&lt;/font&gt;" style="verticalLabelPosition=bottom;sketch=0;aspect=fixed;html=1;verticalAlign=top;strokeColor=none;align=center;outlineConnect=0;shape=mxgraph.citrix.database;" parent="1" vertex="1">
          <mxGeometry x="230" y="150.44" width="84.25" height="99.12" as="geometry" />
        </mxCell>
        <mxCell id="52mS36F658FpA1EYwAAP-4" value="&lt;font style=&quot;font-size: 16px;&quot; face=&quot;Calibri&quot;&gt;СДО&lt;/font&gt;" style="verticalLabelPosition=bottom;sketch=0;aspect=fixed;html=1;verticalAlign=top;strokeColor=none;align=center;outlineConnect=0;shape=mxgraph.citrix.database;" parent="1" vertex="1">
          <mxGeometry x="230.01" y="290.88" width="84.25" height="99.12" as="geometry" />
        </mxCell>
        <mxCell id="52mS36F658FpA1EYwAAP-5" value="&lt;font face=&quot;Calibri&quot; style=&quot;font-size: 16px;&quot;&gt;Интернет&lt;/font&gt;" style="verticalLabelPosition=bottom;sketch=0;aspect=fixed;html=1;verticalAlign=top;strokeColor=none;align=center;outlineConnect=0;shape=mxgraph.citrix.database;" parent="1" vertex="1">
          <mxGeometry x="230" y="430.44" width="84.25" height="99.12" as="geometry" />
        </mxCell>
        <mxCell id="Rmyz0eIJAW2nJohLAHlB-1" value="&lt;font size=&quot;1&quot; style=&quot;&quot; face=&quot;Calibri&quot;&gt;&lt;span style=&quot;font-size: 20px;&quot;&gt;&lt;b&gt;Load&lt;/b&gt;&lt;br&gt;Загрузка данных для использования&lt;br&gt;&lt;/span&gt;&lt;/font&gt;" style="whiteSpace=wrap;html=1;fillColor=#dae8fc;fontSize=14;strokeColor=#6c8ebf;verticalAlign=top;" parent="1" vertex="1">
          <mxGeometry x="740" y="80.44" width="340" height="499.56" as="geometry" />
        </mxCell>
        <mxCell id="Rmyz0eIJAW2nJohLAHlB-5" style="edgeStyle=none;rounded=0;html=1;startSize=10;endSize=10;jettySize=auto;orthogonalLoop=1;fontSize=14;endArrow=none;endFill=0;strokeWidth=2;exitX=1.004;exitY=0.556;exitDx=0;exitDy=0;exitPerimeter=0;" parent="1" edge="1" target="iqdelmEI_SFiGrAFYW7x-2" source="6a7d8f32e03d9370-16">
          <mxGeometry relative="1" as="geometry">
            <mxPoint x="699.87" y="301" as="sourcePoint" />
            <mxPoint x="770" y="350" as="targetPoint" />
          </mxGeometry>
        </mxCell>
        <mxCell id="iqdelmEI_SFiGrAFYW7x-1" value="&lt;font face=&quot;Calibri&quot; style=&quot;font-size: 16px;&quot;&gt;Машинное обучение&lt;/font&gt;" style="verticalLabelPosition=bottom;sketch=0;aspect=fixed;html=1;verticalAlign=top;strokeColor=none;align=center;outlineConnect=0;shape=mxgraph.citrix.xendesktop_server;" vertex="1" parent="1">
          <mxGeometry x="852.5" y="375.68" width="115" height="139.53" as="geometry" />
        </mxCell>
        <mxCell id="iqdelmEI_SFiGrAFYW7x-2" value="&lt;font style=&quot;font-size: 16px;&quot; face=&quot;Calibri&quot;&gt;Разведочный анализ данных&lt;/font&gt;" style="verticalLabelPosition=bottom;sketch=0;aspect=fixed;html=1;verticalAlign=top;strokeColor=none;align=center;outlineConnect=0;shape=mxgraph.citrix.dns_server;" vertex="1" parent="1">
          <mxGeometry x="851.44" y="165.68" width="117.12" height="141.62" as="geometry" />
        </mxCell>
        <mxCell id="iqdelmEI_SFiGrAFYW7x-4" style="edgeStyle=none;rounded=0;html=1;startSize=10;endSize=10;jettySize=auto;orthogonalLoop=1;fontSize=14;endArrow=none;endFill=0;strokeWidth=2;exitX=1.002;exitY=0.599;exitDx=0;exitDy=0;exitPerimeter=0;" edge="1" parent="1" source="6a7d8f32e03d9370-16" target="iqdelmEI_SFiGrAFYW7x-1">
          <mxGeometry relative="1" as="geometry">
            <mxPoint x="679.7" y="430.06" as="sourcePoint" />
            <mxPoint x="861.7" y="347.06" as="targetPoint" />
          </mxGeometry>
        </mxCell>
      </root>
    </mxGraphModel>
  </diagram>
</mxfile>
